<svg width="300" height="300" viewBox="0 0 300 300" fill="none" xmlns="http://www.w3.org/2000/svg">
<path d="M257.864 269.399C255.222 268.912 248.07 263.815 242.255 249.736C238.92 241.685 229.545 200.203 242.255 197.293C254.964 194.382 252.58 215.227 252.58 234.432C252.58 246.132 257.864 269.399 257.864 269.399Z" fill="#0E24A5"/>
<path d="M263.694 271.365C257.009 270.966 258.395 208.979 257.863 194.412C257.331 179.846 254.158 125.467 263.163 116.721C272.167 107.976 281.429 115.746 282.219 127.063C282.605 132.425 280.608 171.381 279.577 182.55C278.546 193.718 277.193 218.965 276.13 234.979C275.067 250.993 271.636 271.823 263.694 271.365Z" fill="#0E24A5"/>
<path d="M276.131 272.073C276.131 272.073 290.967 245.231 294.672 224.49C301.292 187.336 302.613 151.172 293.609 151.644C284.604 152.117 283.944 188.577 283.557 204.088C282.494 244.389 272.169 269.636 272.169 269.636L276.131 272.073Z" fill="#0E24A5"/>
<path d="M274.859 270.95L274.247 270.744C274.247 270.611 279.53 257.315 282.977 248.422C289.759 230.945 290.886 207.707 290.903 207.471H291.547C291.547 207.707 290.419 231.019 283.589 248.584C280.142 257.522 274.907 270.818 274.859 270.95Z" fill="#FFC1C1"/>
<path d="M265.869 267.213H265.225C265.225 258.926 266.836 234.713 266.836 234.417H267.496C267.448 234.698 265.869 258.94 265.869 267.213Z" fill="#FFC1C1"/>
<path d="M255.319 269.149C251.906 261.407 248.986 253.49 246.572 245.438C244.646 238.261 243.838 230.87 244.172 223.485H244.832C244.488 230.805 245.286 238.133 247.2 245.246C249.608 253.272 252.518 261.164 255.915 268.883L255.319 269.149Z" fill="#FFC1C1"/>
<path d="M269.527 234.919C269.53 235.282 269.415 235.638 269.198 235.941C268.98 236.244 268.669 236.481 268.305 236.622C267.94 236.763 267.538 236.802 267.149 236.733C266.761 236.664 266.403 236.49 266.122 236.235C265.842 235.979 265.65 235.653 265.571 235.297C265.493 234.941 265.532 234.572 265.682 234.237C265.833 233.901 266.089 233.614 266.418 233.412C266.747 233.21 267.133 233.102 267.529 233.102C268.056 233.102 268.562 233.293 268.936 233.634C269.31 233.974 269.522 234.436 269.527 234.919Z" fill="#425AC2"/>
<path d="M246.49 223.751C246.494 224.115 246.379 224.471 246.16 224.774C245.942 225.078 245.63 225.315 245.265 225.455C244.899 225.596 244.496 225.633 244.107 225.563C243.718 225.493 243.361 225.318 243.081 225.061C242.8 224.804 242.61 224.476 242.533 224.12C242.457 223.763 242.498 223.393 242.651 223.058C242.804 222.723 243.062 222.437 243.393 222.237C243.724 222.036 244.113 221.931 244.509 221.934C244.769 221.934 245.027 221.981 245.267 222.072C245.508 222.164 245.726 222.297 245.91 222.466C246.094 222.635 246.24 222.835 246.34 223.056C246.439 223.276 246.49 223.512 246.49 223.751Z" fill="#425AC2"/>
<path d="M293.205 207.486C293.205 207.846 293.089 208.197 292.872 208.496C292.654 208.795 292.344 209.028 291.982 209.165C291.62 209.303 291.222 209.339 290.838 209.268C290.453 209.198 290.1 209.025 289.823 208.771C289.546 208.517 289.357 208.193 289.281 207.841C289.204 207.488 289.244 207.123 289.394 206.791C289.543 206.459 289.797 206.175 290.123 205.975C290.449 205.776 290.832 205.669 291.224 205.669C291.75 205.669 292.253 205.861 292.625 206.201C292.997 206.542 293.205 207.004 293.205 207.486Z" fill="#425AC2"/>
<path d="M136.601 60.9238L125.486 65.592C125.17 65.723 124.821 65.7753 124.476 65.7438C124.13 65.7123 123.8 65.5981 123.517 65.4126C123.235 65.227 123.011 64.9767 122.867 64.6867C122.724 64.3967 122.666 64.0772 122.7 63.7602L123.843 52.6214C123.875 52.3027 123.997 51.9973 124.199 51.7361C124.4 51.4748 124.673 51.267 124.99 51.1335C125.307 51.0001 125.657 50.9459 126.005 50.9763C126.352 51.0067 126.684 51.1206 126.968 51.3066L136.923 57.7919C137.206 57.9767 137.431 58.2266 137.576 58.5164C137.721 58.8062 137.78 59.1258 137.747 59.4431C137.714 59.7604 137.591 60.0642 137.39 60.3241C137.189 60.584 136.917 60.7908 136.601 60.9238Z" fill="#425AC2"/>
<path d="M96.9739 76.7309L108.797 85.3435C109.137 85.5857 109.401 85.9062 109.562 86.2724C109.722 86.6385 109.774 87.0371 109.712 87.4276C109.65 87.8181 109.475 88.1865 109.207 88.4952C108.939 88.8038 108.586 89.0417 108.185 89.1845L94.1228 94.2812C93.7228 94.4256 93.2884 94.4709 92.8632 94.4125C92.438 94.3541 92.0371 94.1941 91.7008 93.9486C91.3645 93.703 91.1045 93.3806 90.9472 93.0137C90.7899 92.6468 90.7407 92.2483 90.8045 91.8584L93.0274 78.1491C93.092 77.7598 93.2672 77.3929 93.5352 77.0852C93.8033 76.7775 94.1549 76.54 94.5547 76.3963C94.9546 76.2526 95.3885 76.2079 95.8132 76.2666C96.2378 76.3254 96.6381 76.4855 96.9739 76.7309Z" fill="#425AC2"/>
<path d="M112.954 63.8342L114.05 72.181C114.096 72.4238 114.07 72.6736 113.973 72.9038C113.877 73.1339 113.714 73.3357 113.502 73.4875C113.291 73.6392 113.038 73.7353 112.771 73.7654C112.504 73.7955 112.233 73.7585 111.988 73.6583L103.547 70.3491C103.305 70.2563 103.094 70.1063 102.936 69.9143C102.778 69.7224 102.678 69.4954 102.647 69.2565C102.616 69.0177 102.655 68.7755 102.759 68.5548C102.863 68.3341 103.03 68.1427 103.241 68.0002L110.586 62.9626C110.791 62.8187 111.032 62.7261 111.287 62.6938C111.542 62.6616 111.802 62.691 112.041 62.779C112.28 62.867 112.49 63.0105 112.65 63.1956C112.811 63.3806 112.915 63.6007 112.954 63.8342Z" fill="#425AC2"/>
<path d="M129.465 87.3082L118.849 81.7684C118.548 81.6089 118.298 81.3795 118.125 81.1033C117.951 80.8272 117.859 80.5139 117.859 80.1951C117.859 79.8762 117.951 79.563 118.125 79.2868C118.298 79.0107 118.548 78.7813 118.849 78.6218L129.384 72.9637C129.683 72.7985 130.024 72.7092 130.373 72.705C130.722 72.7007 131.066 72.7817 131.369 72.9397C131.673 73.0976 131.925 73.3267 132.1 73.6036C132.274 73.8804 132.366 74.1949 132.364 74.5149L132.445 85.7127C132.45 86.0346 132.362 86.352 132.189 86.6324C132.016 86.9127 131.766 87.1459 131.463 87.3082C131.159 87.4706 130.815 87.5561 130.464 87.5561C130.113 87.5561 129.768 87.4706 129.465 87.3082Z" fill="#425AC2"/>
<path d="M120.718 104.298L119.349 102.037C114.275 93.6462 109.474 85.787 116.642 74.9437C123.811 64.1003 128.885 57.8809 128.933 57.8071L129.465 58.1616C129.465 58.2355 124.342 64.5288 117.206 75.2539C110.231 85.7427 114.935 93.5133 119.929 101.757C120.38 102.495 120.831 103.249 121.282 104.017L120.718 104.298Z" fill="#0E24A5"/>
<path d="M109.989 67.9833L109.447 68.3025L115.599 77.0916L116.141 76.7724L109.989 67.9833Z" fill="#0E24A5"/>
<path d="M102.209 85.9877L102.107 86.571L113.349 88.2373L113.452 87.654L102.209 85.9877Z" fill="#0E24A5"/>
<path d="M125.63 79.7031L114.259 80.2752L114.294 80.8652L125.665 80.2931L125.63 79.7031Z" fill="#0E24A5"/>
<path d="M101.227 245.6L112.745 244.256C113.073 244.217 113.406 244.258 113.711 244.375C114.017 244.492 114.283 244.68 114.484 244.921C114.684 245.162 114.813 245.447 114.855 245.748C114.898 246.049 114.853 246.355 114.726 246.635L110.232 256.459C110.102 256.735 109.895 256.975 109.633 257.155C109.37 257.335 109.061 257.45 108.736 257.487C108.411 257.524 108.08 257.483 107.778 257.368C107.475 257.252 107.21 257.066 107.01 256.828L99.9869 248.363C99.7866 248.123 99.6585 247.839 99.6153 247.539C99.5722 247.239 99.6156 246.934 99.7411 246.655C99.8666 246.375 100.07 246.131 100.331 245.946C100.592 245.761 100.901 245.642 101.227 245.6Z" fill="#425AC2"/>
<path d="M142.078 241.553L134.024 230.665C133.796 230.365 133.657 230.016 133.619 229.652C133.582 229.288 133.647 228.922 133.809 228.587C133.971 228.253 134.224 227.963 134.544 227.745C134.863 227.527 135.239 227.388 135.634 227.341L149.939 226.381C150.346 226.355 150.753 226.427 151.12 226.591C151.488 226.754 151.802 227.003 152.032 227.312C152.261 227.621 152.399 227.981 152.43 228.354C152.461 228.727 152.385 229.101 152.21 229.439L145.96 241.257C145.774 241.568 145.508 241.831 145.184 242.024C144.86 242.216 144.49 242.332 144.105 242.362C143.721 242.391 143.334 242.332 142.981 242.191C142.627 242.05 142.317 241.831 142.078 241.553Z" fill="#425AC2"/>
<path d="M123.57 249.116L125.18 241.257C125.222 241.032 125.328 240.821 125.489 240.646C125.649 240.471 125.857 240.338 126.091 240.261C126.326 240.185 126.579 240.166 126.824 240.209C127.068 240.252 127.296 240.353 127.484 240.504L134.121 245.689C134.31 245.837 134.454 246.029 134.537 246.245C134.62 246.46 134.64 246.692 134.594 246.917C134.548 247.141 134.439 247.351 134.276 247.525C134.114 247.698 133.905 247.829 133.669 247.905L125.454 250.579C125.219 250.659 124.964 250.68 124.717 250.64C124.47 250.6 124.238 250.501 124.046 250.352C123.855 250.203 123.71 250.011 123.626 249.793C123.542 249.576 123.523 249.343 123.57 249.116Z" fill="#425AC2"/>
<path d="M115.854 223.529L123.763 231.315C123.99 231.535 124.15 231.806 124.225 232.101C124.301 232.396 124.29 232.704 124.193 232.994C124.097 233.284 123.918 233.545 123.675 233.751C123.433 233.957 123.135 234.1 122.812 234.166L111.537 236.559C111.215 236.626 110.879 236.615 110.564 236.526C110.248 236.437 109.964 236.274 109.739 236.053C109.514 235.831 109.356 235.56 109.281 235.265C109.207 234.97 109.218 234.662 109.314 234.373L112.712 224.194C112.81 223.909 112.987 223.652 113.226 223.449C113.465 223.246 113.758 223.104 114.075 223.037C114.393 222.97 114.724 222.98 115.036 223.066C115.348 223.152 115.63 223.312 115.854 223.529Z" fill="#425AC2"/>
<path d="M107.218 250.431L106.848 249.944C106.848 249.944 113.452 245.512 123.246 237.638C133.04 229.764 130.93 221.669 128.948 212.908L128.417 210.5L129.061 210.397L129.593 212.79C131.606 221.654 133.507 230.163 123.665 238.081C113.823 246 107.299 250.387 107.218 250.431Z" fill="#0E24A5"/>
<path d="M125.287 236.436L124.65 236.596L127.516 246.17L128.153 246.009L125.287 236.436Z" fill="#0E24A5"/>
<path d="M130.744 226.861L130.457 227.389L140.141 231.824L140.429 231.295L130.744 226.861Z" fill="#0E24A5"/>
<path d="M117.107 230.88L116.949 231.453L127.439 233.9L127.598 233.327L117.107 230.88Z" fill="#0E24A5"/>
<path d="M249.664 263.815H280.367L275.019 299.92H255.012L249.664 263.815Z" fill="#FFC1C1"/>
<path d="M95.7653 193.836L110.73 254.685L98.842 293.612H89.016L94.2673 254.582C94.2673 254.582 86.2937 235.924 82.2989 226.1L75.5656 227.459L77.8046 255.941L69.9277 293.612H60.1016L61.342 256.296C61.342 256.296 50.7266 209.318 50.8716 203.409C50.5977 202.478 95.7653 193.836 95.7653 193.836Z" fill="#FE958E"/>
<path d="M99.5196 202.759L53.1116 210.987L22.5059 179.964C21.637 179.308 20.9278 178.491 20.4242 177.568C19.9206 176.644 19.6338 175.634 19.5822 174.602C19.5306 173.571 19.7154 172.541 20.1246 171.579C20.5339 170.617 21.1585 169.744 21.9582 169.017L41.9647 150.566C42.7519 149.828 43.6988 149.25 44.7446 148.868C45.7905 148.487 46.9119 148.311 48.0365 148.351C49.1611 148.391 50.2641 148.648 51.2742 149.103C52.2843 149.558 53.1791 150.203 53.901 150.994L99.5196 202.759Z" fill="#0E24A5"/>
<path d="M35.9559 160.435L32.0416 164.024C31.7169 164.291 31.3381 164.497 30.9268 164.63C30.5155 164.762 30.0797 164.819 29.6444 164.797C29.2091 164.775 28.7828 164.675 28.3898 164.502C27.9968 164.328 27.6448 164.086 27.3541 163.788L22.5216 159.356C21.8657 158.822 21.4671 158.072 21.4128 157.269C21.3584 156.466 21.6528 155.676 22.2316 155.072L26.1298 151.467C26.7873 150.932 27.6487 150.657 28.5266 150.701C29.4045 150.745 30.2278 151.106 30.8173 151.704L35.6498 156.136C36.309 156.67 36.7111 157.422 36.7684 158.227C36.8257 159.033 36.5337 159.826 35.9559 160.435Z" fill="#E98896"/>
<path d="M19.9611 172.164C18.7691 174.897 21.137 210.205 23.3277 212.775C27.7091 217.872 62.648 220.058 62.648 220.058V212.273L36.8748 203.897L33.1054 174.572C33.1054 174.572 21.7652 168.043 19.9611 172.164Z" fill="#0E24A5"/>
<path d="M32.7661 145.351C36.5354 151.659 31.2841 155.013 24.4059 158.455C22.767 159.315 20.9577 159.866 19.0838 160.077C17.2098 160.288 15.3088 160.155 13.4918 159.684C11.6748 159.214 9.9783 158.416 8.50139 157.337C7.02448 156.259 5.7968 154.921 4.8901 153.402C3.9834 151.883 3.41588 150.214 3.22068 148.492C3.02547 146.77 3.20651 145.029 3.75321 143.372C4.29992 141.714 5.2013 140.174 6.40473 138.839C7.60815 137.505 9.08951 136.404 10.7621 135.601C17.6404 132.144 28.9967 139.029 32.7661 145.351Z" fill="#FFB3B6"/>
<path d="M7.95973 148.454C7.95973 148.454 24.2452 136.635 26.8548 131.036C29.2871 125.703 27.789 121.626 21.394 121.552C13.1788 121.464 8.78126 129.411 7.05767 138.364C6.47777 141.363 7.95973 148.454 7.95973 148.454Z" fill="#7F4D4E"/>
<path d="M10.3283 145.13C10.3283 145.13 13.8882 148.365 13.405 148.823C12.5489 149.213 11.838 149.826 11.3621 150.586C10.8861 151.346 10.6665 152.218 10.731 153.093C11.1015 155.899 14.2748 156.047 16.2401 154.984C18.2053 153.92 21.2658 158.677 16.7394 161.484C12.213 164.29 1.93587 157.377 0.453912 152.443C-1.02805 147.508 1.38824 138.305 3.82059 136.503C6.25294 134.7 12.6318 138.497 12.6318 138.497L10.3283 145.13Z" fill="#7F4D4E"/>
<path d="M38.4048 143.431C39.7938 144.706 40.7394 146.33 41.1221 148.098C41.5048 149.866 41.3074 151.698 40.5548 153.363C39.8023 155.028 38.5284 156.451 36.8942 157.452C35.26 158.453 33.3388 158.988 31.3735 158.988C29.4082 158.988 27.487 158.453 25.8528 157.452C24.2186 156.451 22.9447 155.028 22.1922 153.363C21.4397 151.698 21.2423 149.866 21.6249 148.098C22.0076 146.33 22.9533 144.706 24.3422 143.431C25.2653 142.583 26.3614 141.911 27.5678 141.452C28.7743 140.994 30.0675 140.758 31.3735 140.758C32.6795 140.758 33.9727 140.994 35.1792 141.452C36.3857 141.911 37.4818 142.583 38.4048 143.431Z" fill="#7F4D4E"/>
<path d="M28.3583 144.596L25.4164 147.31C24.8142 147.865 24.817 148.763 25.4226 149.315L25.9023 149.753C26.5079 150.305 27.487 150.302 28.0892 149.747L31.031 147.034C31.6332 146.479 31.6305 145.581 31.025 145.028L30.5452 144.591C29.9396 144.039 28.9605 144.041 28.3583 144.596Z" fill="#FFB3B6"/>
<path d="M116.127 297.439L112.535 295.991L152.064 213.514L155.656 214.947L116.127 297.439Z" fill="#CCCCCC"/>
<path d="M117.739 296.478C117.751 297.132 117.552 297.776 117.166 298.326C116.78 298.877 116.225 299.31 115.571 299.571C114.916 299.832 114.192 299.909 113.49 299.793C112.788 299.677 112.139 299.372 111.625 298.918C111.112 298.464 110.757 297.88 110.605 297.24C110.453 296.601 110.512 295.934 110.773 295.325C111.034 294.716 111.486 294.192 112.073 293.819C112.659 293.445 113.352 293.24 114.066 293.228C115.022 293.216 115.944 293.551 116.632 294.16C117.32 294.768 117.717 295.602 117.739 296.478Z" fill="#FFC1C1"/>
<path d="M201.13 297.439L204.722 295.991L164.87 212.834L161.278 214.282L201.13 297.439Z" fill="#CCCCCC"/>
<path d="M199.52 296.479C199.507 297.133 199.706 297.776 200.092 298.327C200.478 298.877 201.033 299.31 201.688 299.572C202.342 299.833 203.066 299.91 203.768 299.794C204.471 299.678 205.119 299.373 205.633 298.919C206.147 298.464 206.502 297.88 206.653 297.241C206.805 296.601 206.747 295.935 206.485 295.326C206.224 294.717 205.772 294.193 205.186 293.819C204.6 293.446 203.906 293.24 203.193 293.229C202.238 293.221 201.318 293.557 200.631 294.165C199.944 294.773 199.545 295.604 199.52 296.479Z" fill="#FFC1C1"/>
<path d="M148.311 90.4546C149.004 83.7625 154.915 81.842 157.348 78.976C159.78 76.1101 160.36 67.6009 163.26 62.9179C166.352 57.9098 171.314 50.3756 185.038 51.7643C196.056 52.8723 199.068 60.7906 199.423 66.8623C199.777 72.9339 205.673 78.6806 209.845 80.5715C214.017 82.4625 216.111 89.4353 215.756 92.6853C215.402 95.9354 148.311 90.4546 148.311 90.4546Z" fill="#0E24A5"/>
<path d="M164.709 129.352H201.677L196.587 112.068L206.252 84.383C206.655 80.7194 202.789 77.558 197.876 77.558H168.462C163.63 77.558 159.683 80.7194 160.102 84.383L170.572 112.068L164.709 129.352Z" fill="#FE958E"/>
<path d="M164.629 91.1348C161.632 90.8245 157.187 85.8313 150.647 75.2539C144.107 64.6764 143.543 62.623 143.656 61.1014C143.768 59.5798 148.488 38.2033 148.488 38.2033H155.592L153.482 61.4116C153.482 61.4116 162.212 74.5448 167.77 77.6619C170.863 79.4642 164.629 91.1348 164.629 91.1348Z" fill="#FE958E"/>
<path d="M201.308 91.1348C204.304 90.8245 208.734 85.8313 215.29 75.2539C221.846 64.6764 222.394 62.623 222.281 61.1014C222.168 59.5798 217.449 38.2033 217.449 38.2033H210.345L212.455 61.4116C212.455 61.4116 203.692 74.0573 199.005 77.8391C196.315 80.0255 201.308 91.1348 201.308 91.1348Z" fill="#FE958E"/>
<path d="M183.008 85.6096C191.193 85.6096 197.828 79.5247 197.828 72.0186C197.828 64.5124 191.193 58.4274 183.008 58.4274C174.823 58.4274 168.188 64.5124 168.188 72.0186C168.188 79.5247 174.823 85.6096 183.008 85.6096Z" fill="#E98896"/>
<path d="M258.153 88.8303H59.1034C51.2479 88.8303 44.8798 94.6705 44.8798 101.875V204.813C44.8798 212.017 51.2479 217.857 59.1034 217.857H258.153C266.009 217.857 272.377 212.017 272.377 204.813V101.875C272.377 94.6705 266.009 88.8303 258.153 88.8303Z" fill="#FEE2E3"/>
<path d="M82.4611 99.7917H62.7284C59.8994 99.7917 57.606 101.895 57.606 104.489V122.586C57.606 125.181 59.8994 127.284 62.7284 127.284H82.4611C85.2901 127.284 87.5835 125.181 87.5835 122.586V104.489C87.5835 101.895 85.2901 99.7917 82.4611 99.7917Z" fill="#FFC1C1"/>
<path d="M125.856 99.7917H106.123C103.294 99.7917 101.001 101.895 101.001 104.489V122.586C101.001 125.181 103.294 127.284 106.123 127.284H125.856C128.685 127.284 130.978 125.181 130.978 122.586V104.489C130.978 101.895 128.685 99.7917 125.856 99.7917Z" fill="#FFC1C1"/>
<path d="M169.237 99.7917H149.504C146.675 99.7917 144.381 101.895 144.381 104.489V122.586C144.381 125.181 146.675 127.284 149.504 127.284H169.237C172.066 127.284 174.359 125.181 174.359 122.586V104.489C174.359 101.895 172.066 99.7917 169.237 99.7917Z" fill="#FFC1C1"/>
<path d="M212.631 99.7917H192.899C190.07 99.7917 187.776 101.895 187.776 104.489V122.586C187.776 125.181 190.07 127.284 192.899 127.284H212.631C215.46 127.284 217.754 125.181 217.754 122.586V104.489C217.754 101.895 215.46 99.7917 212.631 99.7917Z" fill="#FFC1C1"/>
<path d="M256.028 99.7917H236.295C233.466 99.7917 231.173 101.895 231.173 104.489V122.586C231.173 125.181 233.466 127.284 236.295 127.284H256.028C258.857 127.284 261.15 125.181 261.15 122.586V104.489C261.15 101.895 258.857 99.7917 256.028 99.7917Z" fill="#FFC1C1"/>
<path d="M82.4611 138.91H62.7284C59.8994 138.91 57.606 141.014 57.606 143.608V161.705C57.606 164.3 59.8994 166.403 62.7284 166.403H82.4611C85.2901 166.403 87.5835 164.3 87.5835 161.705V143.608C87.5835 141.014 85.2901 138.91 82.4611 138.91Z" fill="#FFC1C1"/>
<path d="M125.856 138.91H106.123C103.294 138.91 101.001 141.014 101.001 143.608V161.705C101.001 164.3 103.294 166.403 106.123 166.403H125.856C128.685 166.403 130.978 164.3 130.978 161.705V143.608C130.978 141.014 128.685 138.91 125.856 138.91Z" fill="#FFC1C1"/>
<path d="M169.237 138.91H149.504C146.675 138.91 144.381 141.014 144.381 143.608V161.705C144.381 164.3 146.675 166.403 149.504 166.403H169.237C172.066 166.403 174.359 164.3 174.359 161.705V143.608C174.359 141.014 172.066 138.91 169.237 138.91Z" fill="#FFC1C1"/>
<path d="M256.028 138.91H236.295C233.466 138.91 231.173 141.014 231.173 143.608V161.705C231.173 164.3 233.466 166.403 236.295 166.403H256.028C258.857 166.403 261.15 164.3 261.15 161.705V143.608C261.15 141.014 258.857 138.91 256.028 138.91Z" fill="#FFC1C1"/>
<path d="M82.4611 178.029H62.7284C59.8994 178.029 57.606 180.132 57.606 182.727V200.824C57.606 203.418 59.8994 205.522 62.7284 205.522H82.4611C85.2901 205.522 87.5835 203.418 87.5835 200.824V182.727C87.5835 180.132 85.2901 178.029 82.4611 178.029Z" fill="#FFC1C1"/>
<path d="M125.856 178.029H106.123C103.294 178.029 101.001 180.132 101.001 182.727V200.824C101.001 203.418 103.294 205.522 106.123 205.522H125.856C128.685 205.522 130.978 203.418 130.978 200.824V182.727C130.978 180.132 128.685 178.029 125.856 178.029Z" fill="#FFC1C1"/>
<path d="M169.237 178.029H149.504C146.675 178.029 144.381 180.132 144.381 182.727V200.824C144.381 203.418 146.675 205.522 149.504 205.522H169.237C172.066 205.522 174.359 203.418 174.359 200.824V182.727C174.359 180.132 172.066 178.029 169.237 178.029Z" fill="#FFC1C1"/>
<path d="M212.631 178.029H192.899C190.07 178.029 187.776 180.132 187.776 182.727V200.824C187.776 203.418 190.07 205.522 192.899 205.522H212.631C215.46 205.522 217.754 203.418 217.754 200.824V182.727C217.754 180.132 215.46 178.029 212.631 178.029Z" fill="#FFC1C1"/>
<path d="M256.028 178.029H236.295C233.466 178.029 231.173 180.132 231.173 182.727V200.824C231.173 203.418 233.466 205.522 236.295 205.522H256.028C258.857 205.522 261.15 203.418 261.15 200.824V182.727C261.15 180.132 258.857 178.029 256.028 178.029Z" fill="#FFC1C1"/>
<path d="M98.8423 293.523H88.9196V299.433H106.107C107.251 299.433 107.637 297.099 106.639 296.582L98.8423 293.523Z" fill="#425AC2"/>
<path d="M69.9288 293.523H60.0222V299.433H77.2098C78.3374 299.433 78.74 297.099 77.7413 296.582L69.9288 293.523Z" fill="#425AC2"/>
<path d="M221.813 158.529C224.052 159.223 229.867 163.374 232.445 168.013C234.394 171.484 244.51 190.172 244.011 193.127C243.511 196.081 213.405 214.178 213.405 214.178L208.911 205.019C208.911 205.019 229.851 192.211 229.11 190.379C228.369 188.547 217.835 169.18 217.835 169.18L221.813 158.529Z" fill="white"/>
<path d="M202.855 222.836H184.781L185.764 294.455H192.739C192.739 294.455 198.022 258.424 200.019 238.51H202.548C202.887 233.28 202.887 228.08 202.855 222.836Z" fill="#FFB3B6"/>
<path d="M206.511 221.048L189.887 228.435C192.432 233.132 194.897 237.815 197.088 242.646L199.166 241.73L227.146 291.456L233.428 288.664C233.428 288.664 214.098 234.831 208.702 225.14C208.053 223.741 207.321 222.375 206.511 221.048Z" fill="#FFB3B6"/>
<path d="M216.256 199.878H190.402L183.798 161.734C183.443 158.617 186.713 155.943 190.885 155.943H217.786C221.958 155.943 225.244 158.617 224.89 161.734L216.256 199.878Z" fill="white"/>
<path d="M185.152 294.351H193.061V299.906H177.033C175.986 299.906 175.616 297.734 176.534 297.261L185.152 294.351Z" fill="#0E24A5"/>
<path d="M226.372 291.692L233.475 288.516L236.133 293.524L221.716 299.936C220.766 300.364 219.413 298.547 220.009 297.764L226.372 291.692Z" fill="#0E24A5"/>
<path d="M190.402 199.878H216.176C216.176 199.878 222.909 207.102 227.645 228.612C231.704 246.989 235.876 274.822 235.876 274.822H174.536C174.536 274.822 178.949 233.9 182.397 220.605C185.94 206.881 190.402 199.878 190.402 199.878Z" fill="#425AC2"/>
<mask id="mask0_1_339" style="mask-type:alpha" maskUnits="userSpaceOnUse" x="183" y="155" width="42" height="45">
<path d="M216.256 199.878H190.402L183.798 161.734C183.443 158.617 186.713 155.943 190.885 155.943H217.786C221.958 155.943 225.244 158.617 224.89 161.734L216.256 199.878Z" fill="white"/>
</mask>
<g mask="url(#mask0_1_339)">
<path d="M231.35 193.038H178.965V195.786H231.35V193.038Z" fill="#03053F"/>
<path d="M231.35 186.346H178.965V189.094H231.35V186.346Z" fill="#03053F"/>
<path d="M231.35 179.639H178.965V182.387H231.35V179.639Z" fill="#03053F"/>
<path d="M231.35 172.932H178.965V175.68H231.35V172.932Z" fill="#03053F"/>
<path d="M231.35 166.225H178.965V168.973H231.35V166.225Z" fill="#03053F"/>
<path d="M231.35 159.533H178.965V162.281H231.35V159.533Z" fill="#03053F"/>
</g>
<path d="M201.355 158.543H206.059C206.804 158.501 207.501 158.19 207.996 157.678C208.491 157.165 208.745 156.494 208.701 155.81V150.492C208.745 149.808 208.491 149.137 207.996 148.625C207.501 148.112 206.804 147.801 206.059 147.759H201.355C200.609 147.801 199.91 148.112 199.413 148.624C198.915 149.135 198.658 149.807 198.697 150.492V155.81C198.658 156.495 198.915 157.167 199.413 157.679C199.91 158.191 200.609 158.501 201.355 158.543Z" fill="#E98896"/>
<path d="M193.334 147.744C195.235 153.653 200.582 152.723 206.977 150.979C208.499 150.563 209.917 149.876 211.15 148.958C212.382 148.039 213.405 146.907 214.161 145.626C214.916 144.344 215.389 142.939 215.552 141.49C215.715 140.042 215.566 138.577 215.112 137.182C214.658 135.786 213.909 134.485 212.908 133.355C211.906 132.225 210.671 131.286 209.274 130.594C207.877 129.901 206.345 129.467 204.765 129.318C203.185 129.168 201.589 129.305 200.067 129.721C193.736 131.464 191.449 141.879 193.334 147.744Z" fill="#FFCACE"/>
<path d="M200.534 128.185C193.156 130.785 192.592 134.271 192.206 136.443C191.884 138.378 193.333 137.122 196.797 137.551C198.842 137.817 200.824 137.817 201.001 139.028C201.436 141.761 201.001 164.142 202.531 164.142C204.061 164.142 225.582 165.339 226.081 163.507C226.581 161.675 222.522 135.882 214.484 130.741C207.944 126.589 203.771 127.033 200.534 128.185Z" fill="#FE958E"/>
<path d="M192.561 156.135C192.561 156.135 172.426 155.352 169.864 154.761C167.303 154.171 150.228 131.509 150.228 131.509L144.864 133.976C144.864 133.976 160.312 160.567 163.534 161.734C166.756 162.901 185.828 169.549 185.828 169.549C185.828 169.549 189.307 169.549 191.562 164.275C193.93 158.78 192.561 156.135 192.561 156.135Z" fill="white"/>
<mask id="mask1_1_339" style="mask-type:alpha" maskUnits="userSpaceOnUse" x="144" y="99" width="31" height="29">
<path d="M169.237 99.7917H149.504C146.675 99.7917 144.381 101.895 144.381 104.489V122.586C144.381 125.181 146.675 127.284 149.504 127.284H169.237C172.066 127.284 174.359 125.181 174.359 122.586V104.489C174.359 101.895 172.066 99.7917 169.237 99.7917Z" fill="#FFC1C1"/>
</mask>
<g mask="url(#mask1_1_339)">
<path d="M130.834 85.1531L128.408 87.3781L187.945 141.98L190.371 139.755L130.834 85.1531Z" fill="#425AC2"/>
<path d="M187.917 85.075L128.38 139.676L130.806 141.901L190.343 87.3L187.917 85.075Z" fill="#425AC2"/>
</g>
<mask id="mask2_1_339" style="mask-type:alpha" maskUnits="userSpaceOnUse" x="57" y="138" width="31" height="29">
<path d="M82.4611 138.91H62.7284C59.8994 138.91 57.606 141.014 57.606 143.608V161.705C57.606 164.3 59.8994 166.403 62.7284 166.403H82.4611C85.2901 166.403 87.5835 164.3 87.5835 161.705V143.608C87.5835 141.014 85.2901 138.91 82.4611 138.91Z" fill="#FFC1C1"/>
</mask>
<g mask="url(#mask2_1_339)">
<path d="M44.0339 124.277L41.6078 126.502L101.145 181.103L103.571 178.878L44.0339 124.277Z" fill="#425AC2"/>
<path d="M101.145 124.277L41.6078 178.878L44.0339 181.103L103.571 126.502L101.145 124.277Z" fill="#425AC2"/>
</g>
<mask id="mask3_1_339" style="mask-type:alpha" maskUnits="userSpaceOnUse" x="101" y="178" width="30" height="28">
<path d="M125.856 178.029H106.123C103.294 178.029 101.001 180.132 101.001 182.727V200.824C101.001 203.418 103.294 205.522 106.123 205.522H125.856C128.685 205.522 130.978 203.418 130.978 200.824V182.727C130.978 180.132 128.685 178.029 125.856 178.029Z" fill="#FFC1C1"/>
</mask>
<g mask="url(#mask3_1_339)">
<path d="M87.435 163.373L85.0089 165.598L144.546 220.199L146.972 217.974L87.435 163.373Z" fill="#425AC2"/>
<path d="M144.546 163.358L85.0089 217.959L87.435 220.184L146.972 165.583L144.546 163.358Z" fill="#425AC2"/>
</g>
<path d="M188.179 67.926H177.048V80.675H188.179V67.926Z" fill="#E98896"/>
<path d="M186.552 71.9297C181.881 75.5196 178.643 72.3138 174.729 68.0297C173.797 67.0112 173.093 65.8343 172.657 64.5663C172.221 63.2983 172.062 61.964 172.188 60.6395C172.315 59.315 172.724 58.0264 173.394 56.8471C174.063 55.6678 174.979 54.621 176.09 53.7664C177.2 52.9118 178.484 52.2662 179.866 51.8665C181.249 51.4667 182.704 51.3206 184.148 51.4366C185.592 51.5525 186.997 51.9281 188.283 52.5421C189.569 53.156 190.711 53.9962 191.642 55.0147C195.557 59.3284 191.224 68.3695 186.552 71.9297Z" fill="#FFB3B6"/>
<path d="M180.737 53.3009C178.321 53.3009 173.698 46.6826 177.918 42.9598C181.897 39.503 188.324 42.6791 188.566 46.461C189 52.9316 185.988 53.3009 180.737 53.3009Z" fill="#0E24A5"/>
<path d="M168.93 64.1C170.541 64.1 175.664 62.9477 176.823 59.7568C177.983 56.5658 178.289 56.0931 181.849 56.0931C186.472 56.0931 187.793 56.0931 188.47 58.4124C189.501 61.9136 194.913 67.0989 198.376 66.4636C201.84 65.8284 200.454 55.5908 194.897 53.2566C189.34 50.9225 174.037 47.0816 171.492 51.1294C168.947 55.1771 168.012 64.1 168.012 64.1H168.93Z" fill="#0E24A5"/>
<path d="M152.788 116.532L144.188 124.419L147.377 127.344L155.977 119.457L152.788 116.532Z" fill="white"/>
<path d="M150.228 131.464C150.228 131.464 151.839 124.521 149.906 124.181C148.665 123.945 148.295 127.033 146.539 126.456C145.782 126.22 147.65 119.942 146.281 119.823C144.912 119.705 142.045 125.895 142.286 127.609C142.947 129.809 143.81 131.953 144.864 134.02L150.228 131.464Z" fill="#FFB3B6"/>
<path d="M152.774 116.529L155.963 119.454L157.252 116.411L156.398 115.525L152.774 116.529Z" fill="#FEE2E3"/>
<path d="M156.398 115.524L157.252 116.396C157.252 116.396 158.476 115.332 158.009 114.919C157.542 114.505 156.398 115.524 156.398 115.524Z" fill="#0E24A5"/>
<mask id="mask4_1_339" style="mask-type:alpha" maskUnits="userSpaceOnUse" x="174" y="199" width="62" height="76">
<path d="M190.402 199.878H216.176C216.176 199.878 222.909 207.102 227.645 228.612C231.704 246.989 235.876 274.822 235.876 274.822H174.536C174.536 274.822 178.949 233.9 182.397 220.605C185.94 206.881 190.402 199.878 190.402 199.878Z" fill="#425AC2"/>
</mask>
<g mask="url(#mask4_1_339)">
<path d="M180.979 211.135H194.477C194.477 211.135 195.669 227.282 184.941 230.429C176.565 232.896 174.616 228.612 174.616 228.612L180.979 211.135Z" fill="#0E24A5"/>
</g>
<path d="M62.6479 220.058C62.6479 220.058 75.1479 219.142 76.3399 217.503C77.5319 215.863 74.1653 213.322 69.5906 213.676C68.1787 213.839 66.8173 214.262 65.5882 214.919C64.3591 215.577 63.2877 216.455 62.4385 217.503L62.6479 220.058Z" fill="#FFB3B6"/>
<path d="M148.521 38.1738H155.625C155.625 38.1738 157.976 28.4089 156.688 27.8327C155.915 27.5077 154.803 30.9351 154.304 31.7476C153.804 32.5601 149.938 31.393 148.94 32.6635C147.941 33.934 148.521 38.1738 148.521 38.1738Z" fill="#FFB3B6"/>
<path d="M217.561 38.1738H210.457C210.457 38.1738 208.105 28.4089 209.394 27.8327C210.167 27.5077 211.279 30.9351 211.778 31.7476C212.277 32.5601 216.143 31.393 217.142 32.6635C218.141 33.934 217.561 38.1738 217.561 38.1738Z" fill="#FFB3B6"/>
<path d="M299.295 266.859H242.11V269.769H299.295V266.859Z" fill="#FEE2E3"/>
<path d="M186.133 9.8831C186.133 12.4388 182.734 19.0719 182.734 19.0719C182.734 19.0719 178.594 12.4388 178.594 9.8831C178.594 7.32738 182.734 0 182.734 0C182.734 0 186.133 7.34216 186.133 9.8831Z" fill="#FFC1C1"/>
<path d="M149.133 16.2357C150.744 18.3335 152.097 25.5575 152.097 25.5575C152.097 25.5575 144.558 22.3074 142.948 20.2097C141.337 18.1119 140.161 9.86859 140.161 9.86859C140.161 9.86859 147.522 14.138 149.133 16.2357Z" fill="#FFC1C1"/>
<path d="M126.968 40.2123C129.577 41.143 135.022 46.476 135.022 46.476C135.022 46.476 126.775 47.584 124.181 46.6533C121.588 45.7226 115.676 39.5032 115.676 39.5032C115.676 39.5032 124.358 39.2816 126.968 40.2123Z" fill="#FFC1C1"/>
<path d="M215.29 16.2357C213.679 18.3335 212.326 25.5575 212.326 25.5575C212.326 25.5575 219.864 22.3074 221.475 20.2097C223.086 18.1119 224.262 9.86859 224.262 9.86859C224.262 9.86859 216.9 14.138 215.29 16.2357Z" fill="#FFC1C1"/>
<path d="M237.454 40.2123C234.86 41.143 229.4 46.476 229.4 46.476C229.4 46.476 237.647 47.584 240.257 46.6533C242.866 45.7226 248.762 39.5032 248.762 39.5032C248.762 39.5032 240.063 39.2816 237.454 40.2123Z" fill="#FFC1C1"/>
</svg>
